# xmcd
#
# Track frame offsets:
#	150
#	16180
#	31520
#	49785
#	65255
#	82448
#	97434
#	115483
#	131128
#	145766
#	163864
#	178063
#
# Disc length: 2557 seconds
#
# Revision: 1
# Processed by: cddbd v1.5.2PL0 Copyright (c) Steve Scherf et al.
# Submitted via: audiograbber 1.83.01
#
DISCID=ac09fb0c
DTITLE=Jonny Hill - Was Zum Teufel Ist Schon Liebe
DYEAR=1900
DGENRE=
TTITLE0=Was Zum Teufel Ist Schon Liebe
TTITLE1=Du Warst Mehr
TTITLE2=Jeden Abend Um Halb Acht
TTITLE3=Und Wieder Fahr Ich Weg Von Dir
TTITLE4=Ist Es Liebe?
TTITLE5=Eine Wie Du
TTITLE6=Spiele Nicht Mit Mir
TTITLE7=Komm Lass Uns Einfach Fortfahr´n
TTITLE8=Geblendet Von Der Nacht
TTITLE9=Lieber Gott
TTITLE10=Country Roads
TTITLE11=Ein Ring Aus Feuer
EXTD=
EXTT0=
EXTT1=
EXTT2=
EXTT3=
EXTT4=
EXTT5=
EXTT6=
EXTT7=
EXTT8=
EXTT9=
EXTT10=
EXTT11=
PLAYORDER=
